<svg xmlns="http://www.w3.org/2000/svg" xmlns:xlink="http://www.w3.org/1999/xlink" width="500" zoomAndPan="magnify" viewBox="0 0 375 374.999991" height="500" preserveAspectRatio="xMidYMid meet" version="1.0"><defs><clipPath id="ee8ab7aae5"><path d="M 32 27.464844 L 357.949219 27.464844 L 357.949219 337 L 32 337 Z M 32 27.464844 " clip-rule="nonzero"/></clipPath></defs><g clip-path="url(#ee8ab7aae5)"><path fill="#aa6b48" d="M 196.144531 158.378906 C 198.402344 154.859375 200.128906 150.8125 199.929688 146.695312 C 199.863281 144.636719 199.464844 142.511719 199.132812 140.386719 L 198.269531 133.949219 C 197.9375 131.824219 197.539062 129.699219 197.007812 127.707031 C 196.476562 125.648438 195.8125 123.589844 194.75 121.929688 C 194.21875 121.132812 193.554688 120.472656 192.824219 120.339844 C 192.09375 120.207031 191.230469 120.605469 190.503906 121.265625 C 188.976562 122.527344 187.847656 124.453125 186.585938 126.113281 C 185.390625 127.839844 184.328125 129.765625 183.265625 131.558594 C 182.335938 133.484375 181.273438 135.34375 180.410156 137.332031 C 176.890625 145.167969 174.238281 153.332031 171.914062 161.632812 C 169.589844 169.929688 167.664062 178.296875 165.9375 186.726562 C 164.210938 195.160156 162.75 203.65625 161.488281 212.222656 C 163.546875 195.09375 166.335938 178.03125 170.71875 161.300781 C 172.910156 152.933594 175.5625 144.703125 179.082031 136.734375 C 179.945312 134.746094 181.007812 132.820312 181.9375 130.894531 C 183 129.035156 184.0625 127.109375 185.324219 125.316406 C 186.652344 123.589844 187.714844 121.664062 189.507812 120.140625 C 190.371094 119.410156 191.5625 118.679688 193.023438 118.878906 C 194.484375 119.078125 195.414062 120.140625 196.078125 121.132812 C 197.339844 123.125 197.9375 125.25 198.535156 127.375 C 199.066406 129.5 199.464844 131.625 199.796875 133.816406 L 200.660156 140.1875 C 200.992188 142.3125 201.390625 144.4375 201.457031 146.695312 C 201.65625 151.210938 199.730469 155.589844 197.40625 159.175781 C 195.015625 162.894531 192.09375 166.082031 189.640625 169.53125 C 187.183594 172.984375 185.324219 176.902344 183.332031 180.753906 C 181.40625 184.601562 179.347656 188.386719 177.355469 192.238281 L 165.207031 215.074219 L 176.691406 191.90625 C 178.617188 188.054688 180.609375 184.203125 182.46875 180.355469 C 184.394531 176.503906 186.1875 172.519531 188.644531 168.933594 C 191.03125 165.21875 193.886719 161.964844 196.144531 158.378906 Z M 184.660156 202.925781 C 180.675781 207.242188 177.023438 211.824219 173.375 216.46875 C 177.15625 211.957031 181.007812 207.574219 185.125 203.390625 C 189.242188 199.207031 193.355469 195.027344 197.671875 191.109375 C 206.300781 183.207031 215.199219 175.574219 224.558594 168.535156 L 225.554688 167.804688 L 224.492188 167.273438 C 220.910156 165.417969 217.457031 163.292969 214.203125 160.902344 C 210.949219 158.511719 207.828125 155.855469 205.109375 152.933594 L 204.511719 152.269531 L 203.980469 153 C 200.328125 157.847656 197.140625 162.960938 194.085938 168.203125 C 191.03125 173.449219 188.3125 178.828125 185.589844 184.203125 C 180.210938 195.027344 175.429688 206.046875 170.984375 217.265625 C 175.894531 206.246094 181.074219 195.425781 186.585938 184.734375 C 189.375 179.425781 192.226562 174.113281 195.28125 168.933594 C 198.203125 164.023438 201.257812 159.175781 204.644531 154.660156 C 207.296875 157.515625 210.21875 159.972656 213.273438 162.230469 C 216.328125 164.421875 219.515625 166.414062 222.832031 168.136719 C 213.804688 175.109375 205.175781 182.480469 197.007812 190.378906 C 192.691406 194.363281 188.578125 198.542969 184.660156 202.925781 Z M 199.265625 208.171875 C 204.246094 204.984375 209.289062 201.996094 214.535156 199.140625 C 219.648438 196.421875 224.957031 193.699219 230.402344 192.105469 C 236.113281 194.03125 241.753906 196.089844 246.933594 199.007812 C 248.261719 199.738281 249.457031 200.601562 250.585938 201.53125 C 251.714844 202.460938 252.644531 203.589844 252.90625 204.785156 C 253.171875 205.980469 252.445312 207.109375 251.316406 207.90625 C 250.253906 208.769531 248.859375 209.367188 247.464844 209.832031 L 247.398438 209.832031 C 235.183594 214.542969 222.566406 218.261719 209.953125 221.714844 C 203.648438 223.441406 197.207031 224.96875 190.832031 226.496094 C 184.460938 228.023438 178.019531 229.480469 171.582031 230.808594 C 178.085938 229.679688 184.527344 228.488281 190.964844 227.160156 C 197.40625 225.832031 203.78125 224.371094 210.21875 222.777344 C 222.964844 219.65625 235.648438 215.9375 247.996094 211.226562 L 247.929688 211.226562 C 249.457031 210.695312 250.917969 210.097656 252.246094 209.035156 C 252.90625 208.503906 253.503906 207.90625 253.96875 207.109375 C 254.433594 206.3125 254.632812 205.316406 254.433594 204.386719 C 254.035156 202.527344 252.777344 201.332031 251.582031 200.269531 C 250.386719 199.207031 249.058594 198.34375 247.664062 197.617188 C 242.21875 194.5625 236.378906 192.503906 230.601562 190.578125 L 230.402344 190.511719 L 230.269531 190.578125 C 225.621094 191.90625 221.441406 193.898438 217.390625 196.023438 C 221.773438 193.566406 226.152344 191.109375 230.601562 188.652344 L 230.800781 188.519531 L 230.933594 188.320312 C 231.929688 186.128906 232.925781 183.9375 233.789062 181.617188 C 234.585938 179.292969 235.382812 176.96875 235.582031 174.445312 C 235.714844 173.183594 235.714844 171.855469 235.25 170.527344 C 234.851562 169.199219 233.65625 168.003906 232.261719 167.605469 C 230.933594 167.207031 229.539062 167.339844 228.34375 167.539062 C 227.082031 167.804688 225.886719 168.136719 224.757812 168.667969 L 224.625 168.800781 C 214.800781 176.636719 205.175781 184.667969 196.078125 193.367188 C 191.496094 197.683594 187.050781 202.128906 182.800781 206.777344 C 178.617188 211.425781 174.570312 216.269531 171.117188 221.515625 C 174.769531 216.402344 178.949219 211.757812 183.332031 207.242188 C 187.714844 202.726562 192.226562 198.410156 196.808594 194.230469 C 206.105469 185.863281 215.664062 177.832031 225.488281 170.128906 C 227.480469 169.265625 229.9375 168.601562 231.863281 169.199219 C 233.855469 169.730469 234.320312 172.121094 234.054688 174.378906 C 233.855469 176.636719 233.125 178.960938 232.394531 181.152344 C 231.597656 183.339844 230.667969 185.398438 229.738281 187.523438 C 219.914062 192.96875 210.21875 198.609375 200.726562 204.519531 C 191.097656 210.429688 181.671875 216.734375 172.644531 223.507812 C 181.9375 217.066406 191.5625 211.226562 201.257812 205.449219 C 202.851562 204.519531 204.445312 203.589844 206.039062 202.660156 C 203.648438 204.121094 201.257812 205.714844 198.867188 207.242188 C 193.953125 210.496094 189.109375 213.945312 184.328125 217.464844 C 179.613281 220.984375 174.902344 224.636719 170.253906 228.355469 C 175.035156 224.835938 179.8125 221.382812 184.660156 217.996094 C 189.441406 214.675781 194.285156 211.359375 199.265625 208.171875 Z M 277.671875 305.234375 C 276.742188 305.5 275.8125 305.5 274.617188 305.234375 L 267.914062 304.039062 L 261.273438 302.378906 C 259.082031 301.78125 256.890625 301.050781 254.765625 300.386719 C 246.136719 297.464844 237.703125 293.8125 229.539062 289.699219 C 221.375 285.582031 213.472656 281 205.773438 276.019531 C 198.070312 271.109375 190.503906 265.863281 183.265625 260.222656 C 197.472656 271.839844 212.675781 282.261719 229.007812 290.761719 C 237.175781 295.007812 245.605469 298.726562 254.300781 301.714844 C 256.492188 302.378906 258.683594 303.175781 260.875 303.773438 L 267.582031 305.5 L 274.417969 306.761719 C 275.480469 307.023438 276.875 307.15625 278.203125 306.695312 C 279.53125 306.296875 280.59375 305.035156 280.925781 303.707031 C 281.257812 302.246094 280.726562 300.984375 280.261719 299.855469 C 279.730469 298.726562 279.132812 297.730469 278.402344 296.800781 C 277.074219 294.941406 275.746094 293.015625 274.21875 291.226562 C 272.691406 289.433594 271.03125 287.773438 269.171875 286.378906 C 267.25 284.984375 265.125 283.855469 262.933594 283.058594 C 260.742188 282.261719 258.417969 281.796875 256.160156 281.265625 L 249.457031 279.738281 L 242.75 278.210938 C 240.492188 277.746094 238.300781 277.214844 236.046875 276.617188 C 227.214844 274.296875 218.386719 271.707031 209.6875 268.785156 C 200.992188 265.929688 192.359375 262.742188 183.863281 259.292969 C 192.226562 263.007812 200.792969 266.394531 209.421875 269.515625 C 218.054688 272.570312 226.816406 275.359375 235.714844 277.8125 C 240.09375 279.074219 244.609375 280.003906 249.058594 281.132812 L 255.761719 282.726562 C 258.019531 283.257812 260.210938 283.65625 262.335938 284.453125 C 264.394531 285.25 266.386719 286.3125 268.179688 287.640625 C 269.96875 288.96875 271.5625 290.5625 272.957031 292.285156 C 274.417969 294.011719 275.679688 295.871094 277.007812 297.730469 C 277.671875 298.660156 278.269531 299.589844 278.667969 300.585938 C 279.132812 301.515625 279.398438 302.578125 279.199219 303.375 C 279.132812 304.238281 278.535156 304.902344 277.671875 305.234375 Z M 268.507812 279.9375 C 268.640625 279.9375 268.839844 280.003906 268.972656 280.003906 C 268.972656 279.9375 268.972656 279.9375 268.972656 279.871094 C 268.773438 279.074219 268.246094 278.210938 267.78125 277.347656 C 265.65625 273.964844 263.199219 270.777344 260.410156 267.855469 C 257.6875 264.734375 255.230469 261.546875 252.378906 258.761719 C 250.984375 257.367188 249.457031 256.039062 247.796875 254.910156 C 246.136719 253.847656 244.34375 253.050781 242.484375 253.183594 C 238.433594 253.382812 234.320312 253.515625 230.269531 253.648438 C 214.003906 253.980469 197.605469 253.847656 181.472656 251.589844 C 189.574219 252.519531 197.738281 252.785156 205.839844 252.851562 C 213.9375 252.917969 222.101562 252.785156 230.203125 252.453125 L 242.351562 251.855469 C 244.609375 251.65625 246.734375 252.652344 248.527344 253.78125 C 250.320312 254.910156 251.847656 256.304688 253.304688 257.765625 C 256.292969 260.617188 258.816406 263.871094 261.472656 266.859375 C 264.328125 269.78125 266.851562 273.035156 269.105469 276.550781 C 269.636719 277.480469 270.167969 278.34375 270.5 279.539062 C 270.566406 279.871094 270.632812 280.203125 270.5 280.734375 C 270.433594 281 270.167969 281.332031 269.902344 281.464844 C 269.636719 281.597656 269.371094 281.597656 269.171875 281.664062 C 268.707031 281.664062 268.574219 281.597656 268.3125 281.53125 L 267.582031 281.398438 L 261.539062 280.402344 C 257.554688 279.605469 253.503906 278.875 249.523438 277.945312 C 241.554688 276.085938 233.65625 274.03125 225.953125 271.441406 C 210.417969 266.394531 195.28125 260.15625 180.875 252.585938 C 188.179688 256.171875 195.679688 259.359375 203.25 262.277344 C 210.816406 265.265625 218.519531 267.921875 226.285156 270.3125 C 234.054688 272.703125 241.886719 274.828125 249.855469 276.550781 C 253.835938 277.480469 257.820312 278.210938 261.804688 278.941406 L 267.847656 279.9375 Z M 269.039062 280.136719 C 269.039062 280.203125 269.039062 280.203125 269.039062 280.136719 Z M 242.882812 248.867188 C 239.695312 249.53125 236.179688 249.796875 232.792969 249.996094 C 225.953125 250.328125 219.117188 250.128906 212.277344 249.796875 C 205.441406 249.464844 198.601562 248.867188 191.761719 248.136719 C 184.925781 247.472656 178.085938 246.675781 171.316406 245.746094 C 184.859375 248.136719 198.46875 249.996094 212.210938 250.992188 C 219.050781 251.523438 225.953125 251.722656 232.859375 251.457031 C 236.3125 251.324219 239.695312 251.058594 243.214844 250.328125 C 245.007812 249.929688 246.867188 248.734375 247.597656 246.808594 C 248.394531 244.949219 248.195312 242.960938 247.730469 241.234375 C 246.734375 237.78125 244.410156 234.59375 241.089844 232.933594 C 237.835938 231.207031 234.1875 230.875 230.734375 230.941406 C 227.214844 231.007812 223.828125 231.539062 220.445312 231.9375 C 217.058594 232.402344 213.605469 232.933594 210.21875 233.53125 C 203.449219 234.792969 196.742188 236.320312 190.105469 238.113281 C 183.464844 239.972656 176.957031 242.164062 170.519531 244.554688 C 177.023438 242.363281 183.597656 240.503906 190.304688 238.84375 C 196.941406 237.183594 203.648438 235.789062 210.417969 234.660156 C 213.804688 234.128906 217.191406 233.664062 220.578125 233.199219 C 223.960938 232.800781 227.347656 232.269531 230.734375 232.269531 C 234.054688 232.203125 237.503906 232.601562 240.359375 234.128906 C 243.214844 235.589844 245.273438 238.445312 246.203125 241.5 C 246.667969 243.027344 246.734375 244.6875 246.203125 246.011719 C 245.738281 247.605469 244.410156 248.46875 242.882812 248.867188 Z M 292.941406 139.589844 L 292.941406 139.523438 C 292.742188 136.007812 292.675781 132.554688 292.277344 129.035156 C 292.144531 127.308594 291.945312 125.515625 291.679688 123.789062 L 291.28125 121.199219 L 290.75 118.613281 C 290.085938 115.160156 289.089844 111.707031 287.5625 108.453125 C 286.832031 106.859375 285.769531 105.265625 284.507812 103.941406 C 283.183594 102.613281 281.523438 101.417969 279.199219 101.617188 L 279.132812 101.617188 L 279.066406 101.683594 C 276.011719 103.011719 273.488281 105.136719 271.230469 107.457031 C 269.039062 109.78125 267.050781 112.304688 265.257812 114.960938 C 261.671875 120.207031 258.683594 125.847656 255.960938 131.558594 C 250.453125 142.976562 246.136719 154.859375 242.21875 166.878906 C 244.34375 160.902344 246.667969 155.058594 249.125 149.21875 C 251.582031 143.375 254.101562 137.597656 256.957031 132.023438 C 259.8125 126.378906 262.867188 120.867188 266.453125 115.757812 C 268.246094 113.167969 270.167969 110.710938 272.292969 108.519531 C 274.417969 106.328125 276.875 104.40625 279.53125 103.210938 C 280.726562 103.144531 282.320312 104.007812 283.382812 105.136719 C 284.507812 106.328125 285.4375 107.722656 286.101562 109.25 C 287.5625 112.304688 288.558594 115.625 289.222656 119.011719 L 289.753906 121.53125 L 290.152344 124.121094 C 290.417969 125.847656 290.617188 127.574219 290.816406 129.300781 C 291.214844 132.6875 291.347656 136.140625 291.546875 139.589844 C 291.015625 141.648438 289.820312 143.773438 288.558594 145.632812 C 287.230469 147.558594 285.769531 149.351562 284.109375 151.011719 C 280.859375 154.328125 277.140625 157.316406 273.222656 159.90625 C 271.296875 161.300781 269.171875 162.363281 267.183594 163.625 C 265.125 164.753906 263 165.882812 260.941406 166.945312 C 258.816406 167.9375 256.691406 169 254.5 169.929688 L 247.929688 172.652344 L 254.632812 170.195312 C 256.824219 169.332031 259.015625 168.335938 261.207031 167.40625 C 263.332031 166.414062 265.457031 165.351562 267.648438 164.289062 C 269.703125 163.09375 271.828125 162.03125 273.820312 160.703125 C 277.871094 158.179688 281.65625 155.257812 285.105469 151.871094 C 288.292969 148.289062 291.480469 144.570312 292.941406 139.589844 Z M 287.960938 160.636719 C 285.238281 161.167969 282.652344 161.964844 280.128906 162.960938 C 275.082031 164.820312 270.101562 167.078125 265.324219 169.597656 C 255.761719 174.511719 246.46875 180.023438 237.570312 186.0625 C 242.21875 183.339844 246.867188 180.6875 251.582031 178.164062 C 256.292969 175.574219 261.007812 173.117188 265.855469 170.726562 C 270.699219 168.402344 275.546875 166.148438 280.59375 164.355469 C 283.117188 163.425781 285.636719 162.695312 288.226562 162.164062 C 290.75 161.699219 293.539062 161.433594 295.597656 162.496094 L 295.664062 162.5625 C 297.722656 163.558594 299.644531 165.417969 300.242188 167.605469 C 300.839844 169.863281 300.175781 172.320312 298.984375 174.511719 C 296.59375 178.894531 292.742188 182.480469 288.824219 185.730469 C 284.90625 188.984375 280.660156 191.972656 276.34375 194.761719 C 272.027344 197.617188 267.582031 200.203125 263.132812 202.792969 C 272.359375 198.148438 281.457031 193.035156 289.621094 186.59375 C 291.679688 185 293.671875 183.273438 295.464844 181.417969 C 297.324219 179.558594 298.984375 177.5 300.242188 175.109375 C 301.503906 172.785156 302.367188 169.929688 301.636719 167.144531 C 300.90625 164.355469 298.785156 162.230469 296.261719 161.035156 C 293.539062 159.707031 290.617188 160.171875 287.960938 160.636719 Z M 296.328125 161.101562 C 296.328125 161.101562 296.394531 161.101562 296.328125 161.101562 C 296.394531 161.167969 296.394531 161.167969 296.394531 161.167969 Z M 304.359375 233.265625 C 303.761719 231.671875 302.832031 230.210938 301.703125 228.886719 C 300.574219 227.625 299.25 226.496094 297.789062 225.699219 C 296.328125 224.835938 294.800781 224.171875 293.074219 223.773438 L 292.941406 223.707031 L 292.808594 223.773438 C 289.222656 224.570312 285.96875 226.164062 282.917969 227.957031 C 279.863281 229.8125 277.074219 231.9375 274.351562 234.195312 C 268.972656 238.777344 264.0625 243.890625 259.613281 249.265625 C 264.460938 244.222656 269.570312 239.375 275.015625 234.992188 C 277.738281 232.800781 280.59375 230.808594 283.582031 229.085938 C 286.5 227.359375 289.621094 225.898438 292.875 225.234375 C 294.269531 225.632812 295.664062 226.230469 296.992188 227.027344 C 298.320312 227.824219 299.511719 228.820312 300.507812 229.945312 C 301.503906 231.074219 302.367188 232.402344 302.898438 233.863281 C 303.429688 235.058594 303.695312 236.386719 303.894531 237.648438 C 300.375 238.246094 296.859375 238.976562 293.40625 239.839844 C 289.6875 240.769531 286.035156 241.832031 282.453125 243.027344 C 278.867188 244.222656 275.28125 245.480469 271.761719 246.941406 C 268.246094 248.335938 264.792969 249.929688 261.339844 251.589844 C 264.859375 250.195312 268.375 248.800781 271.960938 247.605469 C 275.546875 246.34375 279.132812 245.148438 282.785156 244.089844 C 286.433594 243.027344 290.085938 242.097656 293.738281 241.167969 C 297.390625 240.304688 301.105469 239.507812 304.824219 239.042969 L 305.554688 238.910156 L 305.488281 238.179688 C 305.289062 236.585938 305.089844 234.859375 304.359375 233.265625 Z M 319.628906 297.597656 C 322.019531 295.273438 324.34375 292.617188 325.738281 289.433594 C 326.402344 287.839844 326.867188 286.113281 326.800781 284.320312 C 326.734375 282.527344 326.269531 280.800781 325.539062 279.207031 C 324.078125 276.019531 321.621094 273.5 318.832031 271.507812 C 316.109375 269.515625 313.058594 267.988281 309.9375 266.726562 C 303.695312 264.203125 297.191406 262.675781 290.550781 261.679688 C 283.976562 260.75 277.273438 260.351562 270.632812 260.15625 C 277.273438 260.617188 283.910156 261.28125 290.417969 262.410156 C 296.925781 263.539062 303.363281 265.199219 309.40625 267.789062 C 312.394531 269.117188 315.3125 270.644531 317.96875 272.570312 C 320.558594 274.496094 322.816406 276.882812 324.144531 279.804688 C 324.808594 281.265625 325.207031 282.792969 325.207031 284.320312 C 325.273438 285.847656 324.808594 287.375 324.210938 288.835938 C 322.949219 291.753906 320.757812 294.210938 318.433594 296.46875 C 313.65625 300.851562 308.34375 305.234375 302.035156 306.628906 C 300.507812 306.957031 298.917969 307.023438 297.390625 306.695312 C 295.863281 306.363281 294.46875 305.699219 293.207031 304.769531 C 290.617188 302.910156 289.289062 299.855469 288.292969 296.734375 C 287.828125 295.140625 287.363281 293.546875 286.832031 291.953125 C 286.300781 290.363281 285.570312 288.835938 284.90625 287.308594 C 283.449219 284.320312 281.855469 281.398438 279.996094 278.542969 C 276.34375 272.96875 272.160156 267.789062 267.648438 262.875 C 271.960938 267.921875 275.945312 273.234375 279.332031 278.941406 C 282.71875 284.652344 285.703125 290.496094 287.097656 297.066406 C 287.960938 300.253906 289.421875 303.707031 292.34375 305.832031 C 293.738281 306.890625 295.398438 307.6875 297.125 308.019531 C 298.851562 308.351562 300.640625 308.285156 302.367188 307.953125 C 305.820312 307.289062 308.875 305.699219 311.664062 303.839844 C 314.519531 301.980469 317.105469 299.855469 319.628906 297.597656 Z M 325.472656 254.445312 C 322.019531 250.128906 316.90625 247.140625 311.464844 246.144531 C 306.085938 245.082031 300.507812 245.480469 295.265625 246.609375 C 289.953125 247.804688 284.839844 249.597656 279.996094 251.789062 C 285.039062 249.929688 290.152344 248.335938 295.464844 247.40625 C 300.707031 246.410156 306.152344 246.210938 311.265625 247.40625 C 316.375 248.46875 321.15625 251.257812 324.34375 255.375 C 327.265625 258.960938 329.125 263.40625 329.988281 267.921875 C 326.601562 265.730469 322.949219 264.003906 319.296875 262.609375 C 315.046875 260.949219 310.667969 259.625 306.21875 258.5625 C 297.390625 256.371094 288.359375 254.910156 279.265625 254.046875 C 288.226562 255.507812 297.191406 257.234375 305.886719 259.691406 C 310.269531 260.949219 314.585938 262.34375 318.765625 263.9375 C 322.949219 265.597656 327 267.589844 330.582031 270.246094 L 332.042969 271.308594 L 331.84375 269.582031 C 331.113281 264.003906 328.992188 258.761719 325.472656 254.445312 Z M 298.054688 325.347656 C 295.53125 325.8125 292.742188 324.75 291.082031 322.496094 C 291.613281 323.753906 292.675781 324.882812 293.871094 325.613281 C 295.132812 326.34375 296.660156 326.675781 298.1875 326.542969 C 301.238281 326.34375 303.960938 323.953125 304.757812 320.96875 C 305.554688 317.980469 304.359375 314.527344 301.835938 312.867188 C 300.574219 312.003906 299.117188 311.539062 297.65625 311.539062 C 296.195312 311.605469 294.734375 312.003906 293.671875 312.867188 C 296.261719 311.738281 299.183594 312.203125 301.105469 313.863281 C 303.03125 315.523438 303.894531 318.246094 303.230469 320.570312 C 302.632812 322.957031 300.507812 324.882812 298.054688 325.347656 Z M 317.371094 317.515625 C 318.632812 318.246094 320.160156 318.578125 321.6875 318.445312 C 324.742188 318.246094 327.464844 315.855469 328.261719 312.867188 C 329.058594 309.878906 327.863281 306.429688 325.339844 304.769531 C 324.078125 303.90625 322.617188 303.441406 321.15625 303.441406 C 319.695312 303.507812 318.234375 303.90625 317.171875 304.769531 C 319.761719 303.640625 322.683594 304.105469 324.609375 305.765625 C 326.535156 307.421875 327.398438 310.144531 326.734375 312.46875 C 326.136719 314.859375 324.011719 316.785156 321.554688 317.25 C 319.03125 317.714844 316.242188 316.652344 314.585938 314.394531 C 315.046875 315.65625 316.109375 316.71875 317.371094 317.515625 Z M 338.484375 301.316406 C 335.960938 301.78125 333.171875 300.71875 331.511719 298.460938 C 332.042969 299.722656 333.105469 300.851562 334.300781 301.582031 C 335.5625 302.3125 337.089844 302.644531 338.617188 302.511719 C 341.671875 302.3125 344.394531 299.921875 345.191406 296.933594 C 345.988281 293.945312 344.792969 290.496094 342.269531 288.835938 C 341.007812 287.972656 339.546875 287.507812 338.085938 287.507812 C 336.625 287.574219 335.164062 287.972656 334.101562 288.835938 C 336.691406 287.707031 339.613281 288.171875 341.539062 289.832031 C 343.464844 291.488281 344.328125 294.210938 343.664062 296.535156 C 343.132812 298.925781 341.007812 300.851562 338.484375 301.316406 Z M 236.910156 47.574219 C 236.710938 49.035156 236.910156 50.5625 237.570312 51.890625 C 238.832031 54.679688 242.019531 56.40625 245.140625 56.074219 C 248.261719 55.808594 250.984375 53.417969 251.714844 50.496094 C 252.046875 49.035156 251.980469 47.507812 251.515625 46.113281 C 250.984375 44.785156 250.054688 43.589844 248.859375 42.796875 C 250.785156 44.785156 251.449219 47.707031 250.585938 50.097656 C 249.722656 52.488281 247.53125 54.28125 245.007812 54.480469 C 242.550781 54.746094 240.027344 53.484375 238.699219 51.292969 C 237.371094 49.101562 237.371094 46.113281 238.898438 43.789062 C 237.835938 44.785156 237.175781 46.113281 236.910156 47.574219 Z M 257.621094 65.5 C 255.097656 65.964844 252.3125 64.902344 250.652344 62.644531 C 251.183594 63.90625 252.246094 65.035156 253.4375 65.765625 C 254.699219 66.496094 256.226562 66.828125 257.753906 66.695312 C 260.808594 66.496094 263.53125 64.105469 264.328125 61.117188 C 265.125 58.132812 263.929688 54.679688 261.40625 53.019531 C 260.144531 52.15625 258.683594 51.691406 257.222656 51.691406 C 255.761719 51.757812 254.300781 52.15625 253.238281 53.019531 C 255.828125 51.890625 258.75 52.355469 260.675781 54.015625 C 262.601562 55.675781 263.464844 58.398438 262.800781 60.71875 C 262.269531 63.175781 260.144531 65.101562 257.621094 65.5 Z M 267.515625 79.175781 C 265.191406 79.972656 262.402344 79.242188 260.675781 77.382812 C 258.949219 75.523438 258.351562 72.605469 259.347656 70.015625 C 258.550781 71.144531 258.152344 72.605469 258.21875 74.066406 C 258.285156 75.523438 258.816406 76.984375 259.746094 78.179688 C 261.539062 80.636719 265.058594 81.699219 267.980469 80.703125 C 270.964844 79.773438 273.15625 76.917969 273.222656 73.867188 C 273.289062 72.339844 272.890625 70.878906 272.09375 69.617188 C 271.296875 68.421875 270.101562 67.425781 268.839844 66.960938 C 271.164062 68.488281 272.359375 71.277344 272.027344 73.800781 C 271.695312 76.320312 269.835938 78.511719 267.515625 79.175781 Z M 272.09375 84.886719 C 270.632812 84.621094 269.105469 84.753906 267.714844 85.285156 C 266.386719 85.882812 265.257812 86.878906 264.527344 88.074219 C 266.453125 86.015625 269.371094 85.285156 271.761719 86.082031 C 274.21875 86.8125 276.078125 89.003906 276.34375 91.457031 C 276.742188 93.914062 275.546875 96.503906 273.421875 97.898438 C 271.296875 99.359375 268.3125 99.425781 265.921875 98.03125 C 266.917969 99.027344 268.3125 99.625 269.769531 99.824219 C 271.230469 99.957031 272.757812 99.691406 274.085938 98.960938 C 276.808594 97.566406 278.402344 94.3125 277.9375 91.257812 C 277.605469 88.140625 275.082031 85.417969 272.09375 84.886719 Z M 220.910156 71.941406 C 219.382812 71.34375 217.988281 71.144531 216.460938 71.210938 C 213.339844 71.277344 210.683594 73.003906 208.625 74.992188 C 206.566406 77.050781 204.910156 79.375 203.316406 81.699219 C 201.789062 84.023438 200.128906 86.28125 198.601562 88.671875 C 197.074219 90.992188 195.613281 93.449219 194.285156 95.90625 C 191.5625 100.820312 189.242188 105.929688 187.117188 111.109375 C 189.574219 106.0625 192.160156 101.152344 195.015625 96.371094 C 196.410156 93.980469 197.9375 91.65625 199.53125 89.335938 C 201.125 87.078125 202.851562 84.886719 204.445312 82.496094 C 206.039062 80.238281 207.628906 77.980469 209.621094 76.121094 C 211.546875 74.261719 213.9375 72.871094 216.527344 72.804688 C 218.984375 72.738281 222.5 73.535156 221.375 75.855469 C 220.976562 76.984375 220.046875 77.980469 219.117188 78.910156 C 218.121094 79.773438 216.992188 80.570312 215.863281 81.167969 L 215.730469 81.234375 L 215.664062 81.300781 C 211.679688 85.484375 208.09375 89.929688 204.910156 94.644531 C 201.789062 99.359375 198.933594 104.40625 197.074219 109.78125 C 194.21875 111.175781 191.429688 112.769531 188.777344 114.5625 C 191.5625 112.902344 194.484375 111.507812 197.40625 110.246094 L 197.539062 110.179688 L 197.605469 110.046875 C 199.730469 104.804688 202.585938 99.890625 205.90625 95.308594 C 209.222656 90.792969 212.742188 86.347656 216.660156 82.363281 C 217.921875 81.699219 219.117188 80.902344 220.179688 79.972656 C 221.242188 78.976562 222.300781 77.914062 222.898438 76.386719 C 223.230469 75.65625 223.296875 74.660156 222.964844 73.734375 C 222.433594 72.804688 221.640625 72.207031 220.910156 71.941406 Z M 231.597656 85.75 C 231.199219 85.21875 230.734375 84.6875 230.269531 84.222656 C 229.339844 83.226562 228.34375 82.296875 227.347656 81.367188 L 226.949219 80.96875 L 226.484375 81.234375 C 223.695312 82.828125 221.042969 84.621094 218.519531 86.546875 C 215.929688 88.40625 213.472656 90.460938 211.214844 92.71875 C 208.957031 94.976562 206.765625 97.300781 204.976562 99.957031 C 203.183594 102.613281 201.722656 105.464844 200.992188 108.585938 C 203.117188 102.546875 207.363281 97.699219 212.011719 93.515625 C 214.335938 91.390625 216.859375 89.46875 219.382812 87.609375 C 221.773438 85.882812 224.292969 84.222656 226.816406 82.761719 C 227.613281 83.558594 228.476562 84.289062 229.207031 85.152344 C 229.671875 85.617188 230.070312 86.082031 230.46875 86.613281 C 230.867188 87.078125 231.265625 87.609375 231.597656 88.140625 C 232.261719 89.203125 232.859375 90.328125 232.859375 91.390625 C 232.859375 92.453125 232.0625 93.25 231.066406 93.582031 L 231.199219 93.582031 C 229.539062 93.980469 228.476562 94.644531 227.28125 95.308594 C 226.085938 95.972656 224.957031 96.703125 223.828125 97.367188 C 221.574219 98.828125 219.316406 100.355469 217.125 101.882812 C 212.675781 104.9375 208.359375 108.121094 204.113281 111.441406 L 217.523438 102.878906 C 219.78125 101.417969 222.035156 100.023438 224.359375 98.695312 C 225.488281 98.03125 226.683594 97.300781 227.8125 96.703125 C 228.941406 96.105469 230.269531 95.375 231.199219 95.175781 L 231.332031 95.175781 C 232.128906 94.910156 232.792969 94.578125 233.390625 93.914062 C 233.921875 93.25 234.253906 92.453125 234.253906 91.589844 C 234.253906 89.929688 233.523438 88.605469 232.792969 87.476562 C 232.460938 86.8125 232.0625 86.28125 231.597656 85.75 Z M 233.058594 113.699219 C 234.320312 112.371094 235.117188 110.578125 235.582031 108.917969 C 236.046875 107.191406 236.378906 105.464844 236.378906 103.675781 C 236.378906 102.746094 236.246094 101.816406 235.847656 100.886719 C 235.515625 99.957031 234.785156 99.027344 233.722656 98.628906 C 232.59375 98.230469 231.664062 98.429688 230.800781 98.628906 C 229.9375 98.828125 229.074219 99.09375 228.277344 99.425781 C 225.023438 100.621094 222.035156 102.28125 218.984375 103.742188 C 212.808594 106.726562 206.964844 110.511719 202.585938 115.824219 C 207.429688 111.042969 213.339844 107.589844 219.515625 104.871094 C 222.699219 103.609375 225.6875 101.949219 228.808594 100.820312 C 229.605469 100.554688 230.402344 100.289062 231.132812 100.15625 C 231.863281 100.023438 232.726562 99.890625 233.191406 100.15625 C 234.320312 100.554688 234.785156 102.214844 234.785156 103.808594 C 234.851562 105.398438 234.585938 107.058594 234.121094 108.585938 C 233.65625 110.179688 233.125 111.574219 231.996094 112.769531 C 229.871094 115.160156 226.882812 116.820312 223.695312 117.75 C 220.511719 118.746094 217.125 119.078125 213.738281 119.144531 C 210.351562 119.277344 206.964844 119.078125 203.582031 118.746094 C 210.21875 120.007812 217.191406 120.539062 223.960938 118.878906 C 225.621094 118.414062 227.347656 117.882812 228.875 116.953125 C 230.402344 116.15625 231.796875 115.09375 233.058594 113.699219 Z M 223.164062 129.632812 C 222.167969 128.4375 220.84375 127.640625 219.648438 126.910156 C 218.386719 126.179688 217.058594 125.582031 215.664062 125.117188 C 212.941406 124.1875 210.085938 123.589844 207.230469 123.457031 C 210.019531 123.921875 212.808594 124.71875 215.398438 125.847656 C 216.726562 126.378906 217.921875 127.042969 219.117188 127.773438 C 220.3125 128.503906 221.441406 129.367188 222.234375 130.363281 C 223.828125 132.488281 224.425781 135.277344 224.226562 137.996094 C 224.09375 140.652344 223.097656 143.441406 221.242188 145.167969 C 219.316406 146.960938 216.726562 148.222656 214.070312 148.289062 C 211.414062 148.355469 208.957031 146.894531 207.363281 144.703125 C 206.964844 144.171875 206.566406 143.574219 206.300781 142.976562 C 205.972656 142.378906 205.773438 141.78125 205.574219 141.050781 C 205.175781 139.65625 204.84375 138.328125 204.511719 136.933594 C 203.847656 134.148438 203.25 131.359375 202.71875 128.570312 C 202.917969 131.425781 203.316406 134.28125 203.78125 137.066406 C 204.046875 138.460938 204.3125 139.855469 204.578125 141.316406 L 204.84375 142.378906 C 204.976562 142.777344 205.109375 143.109375 205.242188 143.441406 C 205.507812 144.105469 205.90625 144.769531 206.300781 145.433594 C 207.894531 148.023438 210.882812 149.816406 214.003906 149.816406 C 217.125 149.816406 219.980469 148.488281 222.234375 146.429688 C 224.492188 144.238281 225.488281 141.117188 225.621094 138.195312 C 225.820312 135.144531 225.15625 131.957031 223.164062 129.632812 Z M 357.605469 286.246094 C 357.472656 282.527344 356.476562 279.007812 355.148438 275.625 C 352.425781 268.917969 348.375 262.875 343.929688 257.234375 C 339.480469 251.589844 334.566406 246.34375 329.457031 241.367188 C 324.34375 236.453125 319.097656 231.738281 313.523438 227.359375 C 312.59375 224.769531 311.332031 222.3125 309.605469 220.121094 C 307.8125 217.863281 305.554688 216.070312 303.097656 214.609375 C 298.1875 211.757812 292.609375 210.496094 287.097656 209.964844 C 281.589844 209.433594 276.011719 209.699219 270.5 210.296875 C 267.980469 210.5625 265.523438 210.960938 263 211.425781 C 263.863281 210.960938 264.660156 210.496094 265.523438 210.03125 C 268.972656 208.105469 272.292969 206.046875 275.679688 203.921875 C 282.386719 199.738281 288.957031 195.492188 295.53125 191.109375 L 295.664062 190.976562 C 298.984375 187.789062 302.234375 184.535156 305.089844 180.820312 C 307.878906 177.167969 310.535156 173.050781 311.132812 168.136719 C 311.398438 165.683594 310.933594 163.027344 309.605469 160.902344 C 308.277344 158.710938 306.285156 157.183594 304.226562 155.988281 C 300.773438 154.0625 297.125 153 293.273438 152.402344 C 295.398438 150.613281 296.925781 148.15625 297.789062 145.632812 C 298.984375 142.3125 299.382812 138.726562 299.445312 135.34375 C 299.445312 128.4375 298.1875 121.597656 296.460938 115.027344 C 294.734375 108.386719 292.609375 101.949219 290.152344 95.574219 C 287.695312 89.269531 285.105469 83.027344 282.121094 76.917969 C 280.726562 71.277344 279.199219 65.699219 277.40625 60.121094 C 275.546875 54.613281 273.421875 49.101562 270.699219 43.855469 C 267.980469 38.8125 264.660156 33.699219 259.613281 30.246094 C 257.089844 28.585938 253.96875 27.589844 250.851562 27.855469 C 247.796875 28.121094 244.941406 29.515625 242.683594 31.574219 L 242.617188 31.640625 C 227.679688 43.457031 214.335938 57.203125 203.25 72.671875 C 200.394531 76.453125 197.804688 80.503906 195.148438 84.488281 C 192.691406 88.539062 190.105469 92.585938 187.914062 96.769531 C 183.265625 105.070312 179.148438 113.699219 175.496094 122.460938 C 168.0625 139.988281 162.683594 158.3125 158.703125 176.902344 C 154.984375 194.429688 152.460938 212.289062 151.796875 230.144531 C 151.53125 229.878906 151.332031 229.679688 151.066406 229.480469 C 147.214844 225.699219 142.902344 222.445312 138.386719 219.457031 L 136.660156 218.394531 C 136.59375 218.328125 136.527344 218.328125 136.460938 218.261719 C 136.660156 217.664062 136.792969 217.132812 136.992188 216.535156 C 139.582031 206.445312 134.933594 196.488281 126.636719 194.363281 C 122.71875 193.367188 118.734375 194.230469 115.28125 196.488281 C 107.449219 190.777344 100.011719 184.800781 93.507812 178.03125 C 86.601562 170.925781 80.363281 163.09375 76.3125 153.996094 C 72.128906 144.96875 70.203125 135.011719 70.269531 124.984375 C 70.269531 120.007812 70.734375 114.960938 71.664062 109.980469 C 72.460938 105.796875 73.589844 101.683594 75.117188 97.632812 C 75.714844 100.222656 77.109375 102.148438 79.035156 102.613281 C 82.617188 103.542969 86.667969 99.492188 88.195312 93.582031 C 89.722656 87.675781 88.0625 82.164062 84.476562 81.300781 C 80.894531 80.371094 76.84375 84.421875 75.316406 90.328125 C 74.71875 92.585938 74.652344 94.777344 74.917969 96.703125 C 72.992188 100.886719 71.53125 105.265625 70.402344 109.714844 C 69.140625 114.695312 68.34375 119.808594 68.078125 124.917969 C 67.613281 135.210938 69.140625 145.699219 73.125 155.324219 C 76.976562 164.953125 82.816406 173.980469 90.453125 181.019531 C 97.558594 187.65625 105.722656 193.035156 114.484375 196.953125 C 110.902344 199.539062 108.113281 203.65625 106.785156 208.703125 C 106.785156 208.703125 106.785156 208.769531 106.785156 208.769531 L 106.851562 208.503906 C 96.429688 206.179688 86.402344 202.128906 77.175781 196.886719 C 68.011719 191.773438 59.515625 185.132812 52.875 176.96875 C 49.558594 172.917969 46.703125 168.46875 44.378906 163.824219 C 43.25 161.5 42.121094 159.109375 41.257812 156.652344 C 40.195312 154.261719 39.53125 151.742188 38.667969 149.285156 C 35.8125 139.523438 34.6875 129.300781 34.355469 118.878906 C 34.953125 119.542969 35.679688 120.007812 36.476562 120.207031 C 40.0625 121.132812 44.113281 117.085938 45.640625 111.175781 C 47.167969 105.265625 45.507812 99.757812 41.921875 98.894531 C 38.335938 97.964844 34.289062 102.015625 32.761719 107.921875 C 31.699219 112.039062 32.164062 115.957031 33.757812 118.214844 C 31.765625 128.703125 31.964844 139.722656 34.488281 150.347656 C 35.285156 153 35.945312 155.65625 37.074219 158.179688 C 38.003906 160.769531 39.332031 163.226562 40.59375 165.683594 C 43.382812 170.460938 46.570312 174.976562 50.222656 179.09375 C 57.523438 187.324219 66.488281 193.832031 76.113281 198.742188 C 85.804688 203.589844 96.097656 207.109375 106.71875 208.902344 C 104.261719 218.925781 108.84375 228.753906 117.140625 230.875 C 120.660156 231.804688 124.246094 231.140625 127.433594 229.347656 C 127.367188 229.414062 127.367188 229.480469 127.300781 229.613281 C 127.367188 229.546875 127.367188 229.414062 127.433594 229.347656 C 131.28125 227.160156 134.601562 223.308594 136.328125 218.394531 C 136.394531 218.460938 136.460938 218.460938 136.460938 218.460938 L 138.121094 219.589844 C 142.570312 222.644531 146.617188 226.164062 150.335938 230.011719 C 150.800781 230.476562 151.199219 230.941406 151.664062 231.40625 C 151.664062 231.40625 151.664062 231.40625 151.664062 231.472656 C 158.371094 238.976562 163.679688 247.539062 167.929688 256.570312 C 172.445312 266.195312 175.828125 276.285156 178.949219 286.445312 C 180.476562 291.492188 181.804688 296.667969 182.867188 301.78125 C 183.996094 306.894531 184.660156 312.070312 184.859375 317.183594 C 184.925781 319.242188 184.992188 321.5 184.726562 323.222656 C 184.925781 323.421875 185.058594 323.554688 185.257812 323.753906 C 185.589844 324.019531 185.921875 324.285156 185.988281 324.285156 C 185.988281 324.285156 185.988281 324.285156 185.855469 324.21875 C 185.722656 324.21875 185.65625 324.21875 185.457031 324.21875 C 185.257812 324.21875 185.058594 324.351562 184.859375 324.417969 C 184.660156 324.550781 184.527344 324.683594 184.527344 324.683594 C 184.261719 324.949219 184.527344 324.683594 184.59375 324.285156 C 184.660156 323.953125 184.726562 323.621094 184.792969 323.222656 C 184.59375 323.023438 184.394531 322.824219 184.128906 322.492188 C 180.476562 318.445312 176.625 314.660156 172.84375 310.875 C 165.207031 303.375 157.90625 295.738281 151.597656 287.109375 C 145.222656 278.609375 139.648438 269.382812 135.332031 259.558594 C 134.269531 257.101562 133.339844 254.578125 132.410156 252.054688 C 131.480469 249.53125 130.484375 247.074219 129.6875 244.488281 C 128.890625 241.964844 128.164062 239.375 127.632812 236.71875 C 127.367188 235.390625 127.167969 234.0625 127.101562 232.734375 C 127.101562 231.738281 127.035156 230.542969 127.433594 229.613281 C 127.035156 230.609375 127.035156 231.738281 127.035156 232.800781 C 127.035156 234.128906 127.234375 235.457031 127.5 236.785156 C 127.964844 239.441406 128.691406 242.03125 129.488281 244.621094 C 130.285156 247.207031 131.082031 249.730469 131.945312 252.320312 C 132.742188 254.84375 133.605469 257.433594 134.535156 259.957031 C 138.253906 270.046875 143.234375 279.738281 148.941406 288.96875 C 151.863281 293.546875 154.917969 298.0625 158.304688 302.3125 C 161.6875 306.5625 165.273438 310.675781 168.859375 314.660156 C 172.511719 318.644531 176.09375 322.625 179.546875 326.609375 C 179.945312 327.074219 180.542969 327.738281 181.140625 328.269531 C 181.804688 328.867188 182.402344 329.464844 183.730469 329.996094 C 183.996094 330.128906 184.328125 330.261719 184.859375 330.328125 C 185.324219 330.394531 185.722656 330.460938 186.320312 330.394531 C 186.851562 330.328125 187.382812 330.195312 187.847656 329.929688 C 188.3125 329.664062 188.710938 329.332031 188.976562 329.066406 C 190.105469 327.804688 190.371094 326.742188 190.632812 325.945312 C 191.496094 322.492188 191.296875 319.839844 191.296875 316.984375 C 190.765625 305.699219 187.914062 295.007812 184.261719 284.785156 C 182.269531 279.207031 180.078125 273.765625 177.621094 268.386719 C 188.578125 283.722656 201.457031 297.863281 216.992188 308.816406 C 225.753906 315.058594 235.316406 320.171875 245.539062 323.621094 C 250.652344 325.28125 255.894531 326.609375 261.40625 326.941406 C 264.128906 327.074219 266.851562 327.007812 269.570312 326.542969 C 272.292969 326.011719 275.015625 325.082031 277.207031 323.222656 C 279.464844 321.367188 280.726562 318.511719 280.792969 315.589844 C 280.792969 314.128906 280.394531 312.535156 279.332031 311.40625 C 278.335938 310.277344 277.074219 309.480469 275.746094 308.949219 C 270.5 306.890625 264.992188 307.289062 260.078125 305.300781 C 249.855469 302.179688 239.894531 298.394531 230.136719 294.078125 C 220.378906 289.765625 210.882812 284.851562 201.789062 279.273438 C 192.625 273.765625 183.929688 267.523438 175.761719 260.617188 C 183.730469 267.722656 192.359375 274.164062 201.390625 279.9375 C 210.417969 285.648438 219.914062 290.761719 229.671875 295.207031 C 239.429688 299.722656 249.457031 303.441406 259.679688 306.695312 C 264.792969 308.683594 270.433594 308.417969 275.214844 310.34375 C 276.410156 310.808594 277.40625 311.472656 278.203125 312.335938 C 279 313.199219 279.265625 314.394531 279.265625 315.523438 C 279.132812 317.914062 278.070312 320.371094 276.210938 321.964844 C 274.285156 323.554688 271.828125 324.484375 269.304688 324.949219 C 266.785156 325.414062 264.128906 325.480469 261.539062 325.347656 C 256.292969 325.015625 251.117188 323.753906 246.070312 322.164062 C 235.980469 318.910156 226.550781 313.796875 217.789062 307.753906 C 209.023438 301.714844 200.992188 294.609375 193.621094 286.910156 C 187.78125 280.800781 182.402344 274.296875 177.355469 267.523438 C 177.355469 267.523438 177.355469 267.523438 177.355469 267.457031 C 175.429688 263.207031 173.308594 259.09375 170.984375 255.042969 C 165.738281 245.945312 159.433594 237.382812 151.929688 230.078125 C 152.726562 212.15625 155.449219 194.363281 159.300781 176.902344 C 163.480469 158.378906 169.125 140.1875 176.558594 122.792969 C 180.277344 114.03125 184.328125 105.464844 189.042969 97.234375 C 191.296875 93.050781 193.820312 89.070312 196.277344 85.019531 C 198.933594 81.101562 201.457031 77.050781 204.3125 73.335938 C 215.398438 58 228.742188 44.320312 243.679688 32.636719 L 243.746094 32.570312 C 245.738281 30.777344 248.394531 29.515625 251.117188 29.25 C 253.835938 29.050781 256.558594 29.914062 258.882812 31.441406 C 263.53125 34.5625 266.785156 39.542969 269.4375 44.585938 C 272.09375 49.699219 274.152344 55.078125 275.945312 60.585938 C 277.738281 66.097656 279.199219 71.675781 280.59375 77.316406 L 280.59375 77.382812 L 280.660156 77.515625 C 283.582031 83.558594 286.234375 89.796875 288.625 96.105469 C 291.015625 102.414062 293.140625 108.851562 294.800781 115.359375 C 296.460938 121.863281 297.65625 128.570312 297.65625 135.210938 C 297.589844 138.527344 297.191406 141.847656 296.128906 144.835938 C 295 147.824219 293.074219 150.480469 290.285156 152.070312 L 287.628906 153.597656 L 290.683594 153.929688 C 295 154.394531 299.511719 155.523438 303.296875 157.648438 C 305.15625 158.710938 306.882812 160.105469 307.878906 161.898438 C 308.941406 163.625 309.339844 165.75 309.140625 167.804688 C 308.609375 171.988281 306.21875 175.972656 303.496094 179.492188 C 300.773438 183.007812 297.589844 186.261719 294.335938 189.382812 C 287.894531 193.699219 281.324219 198.015625 274.75 202.128906 C 271.429688 204.1875 268.113281 206.246094 264.726562 208.238281 C 263 209.234375 261.339844 210.164062 259.613281 211.09375 C 257.953125 211.957031 256.226562 212.820312 254.566406 213.285156 C 254.5 213.285156 254.5 213.351562 254.433594 213.351562 C 254.433594 213.351562 254.367188 213.351562 254.367188 213.351562 L 254.832031 215.140625 C 254.832031 215.140625 254.898438 215.140625 254.898438 215.140625 C 260.078125 213.679688 265.523438 212.6875 270.898438 212.089844 C 276.277344 211.492188 281.722656 211.226562 287.097656 211.757812 C 292.476562 212.222656 297.855469 213.484375 302.433594 216.136719 C 307.082031 218.726562 310.535156 223.109375 312.195312 228.089844 L 312.261719 228.355469 L 312.460938 228.488281 C 318.035156 232.867188 323.347656 237.582031 328.460938 242.496094 C 333.570312 247.40625 338.417969 252.585938 342.867188 258.164062 C 347.246094 263.671875 351.296875 269.648438 353.953125 276.152344 C 355.28125 279.40625 356.210938 282.792969 356.34375 286.3125 C 356.476562 289.765625 355.746094 293.214844 353.953125 296.203125 C 349.304688 302.246094 343.796875 307.753906 337.820312 312.667969 C 331.84375 317.582031 325.40625 321.898438 318.5 325.414062 C 304.757812 332.519531 289.222656 336.105469 273.753906 335.707031 C 265.988281 335.441406 258.351562 334.179688 250.851562 332.253906 C 247.132812 331.058594 243.414062 330.128906 239.828125 328.601562 C 238.035156 327.871094 236.179688 327.207031 234.386719 326.476562 L 229.140625 324.019531 C 215.132812 317.316406 202.320312 308.21875 190.4375 298.195312 C 202.1875 308.351562 214.933594 317.582031 228.875 324.484375 L 234.121094 327.007812 C 235.914062 327.804688 237.703125 328.46875 239.5625 329.199219 C 243.148438 330.792969 246.933594 331.789062 250.652344 332.984375 C 258.21875 334.976562 265.921875 336.371094 273.753906 336.703125 C 289.421875 337.367188 305.15625 333.648438 319.03125 326.542969 C 326.003906 323.023438 332.574219 318.710938 338.617188 313.730469 C 344.660156 308.75 350.234375 303.242188 355.082031 297 L 355.082031 296.933594 C 356.941406 293.679688 357.738281 289.898438 357.605469 286.246094 Z M 357.605469 286.246094 " fill-opacity="1" fill-rule="nonzero"/></g></svg>