<svg width="40" height="41" viewBox="0 0 40 41" fill="none" xmlns="http://www.w3.org/2000/svg">
<g id="Tiktok">
<g clip-path="url(#clip0_879_1063)">
<path id="Path 31" d="M0 0.0898438H40V40.0898H0V0.0898438Z" fill="black"/>
<path id="Path 32" d="M9.7998 25.0049L9.87855 25.2349C9.86989 25.2097 9.83918 25.1298 9.7998 25.0049ZM13.0446 19.7599C13.0876 19.229 13.2497 18.7146 13.5189 18.2549C13.7881 17.7952 14.1574 17.4022 14.5995 17.105C15.9193 16.1399 17.5643 16.6848 17.5643 16.6848V13.4396C17.9641 13.4295 18.364 13.4545 18.7593 13.5144V17.6881C18.7593 17.6881 17.1143 17.1432 15.7945 18.1082C15.3524 18.4054 14.9831 18.7985 14.7139 19.2581C14.4447 19.7178 14.2826 20.2322 14.2396 20.7632C14.2083 21.5891 14.445 22.4029 14.9145 23.0831C14.7743 23.0083 14.6345 22.9233 14.4896 22.828C14.0125 22.4772 13.6304 22.013 13.3781 21.4772C13.1257 20.9415 13.0111 20.3512 13.0446 19.7599ZM25.5655 7.43984C24.8546 6.64551 24.3786 5.66916 24.1906 4.61987H25.3324C25.2831 6.0341 25.7975 7.41002 26.7625 8.44505L26.7877 8.46986C26.3391 8.1793 25.929 7.83322 25.5671 7.43984H25.5655ZM31.0606 10.3799V14.4701C30.207 14.431 29.3586 14.3156 28.5257 14.1251C27.6591 13.9034 26.8278 13.5618 26.0557 13.1101C26.0557 13.1101 25.3864 12.6703 25.3356 12.64V21.09C25.3075 21.9858 25.1388 22.8717 24.8355 23.7151C24.1172 25.5735 22.7042 27.0796 20.8954 27.9151C19.9107 28.3687 18.8395 28.604 17.7553 28.6049C16.2528 28.6005 14.7836 28.1611 13.5254 27.3398C13.0911 27.0402 12.6859 26.7004 12.3154 26.3248L12.3252 26.3346C13.5823 27.1585 15.0522 27.5982 16.5552 27.5997C17.6394 27.5988 18.7105 27.3635 19.6953 26.9099C21.5041 26.0744 22.917 24.5682 23.6354 22.7098C23.9387 21.8664 24.1074 20.9806 24.1355 20.0848V11.6399C24.1906 11.6698 24.8556 12.11 24.8556 12.11C25.6277 12.5617 26.459 12.9033 27.3255 13.125C28.1585 13.3155 29.0069 13.4309 29.8604 13.47V10.2649C30.2518 10.3655 30.6564 10.4042 31.0598 10.3799H31.0606Z" fill="#EE1D52"/>
<path id="Path 33" d="M29.8608 10.2598V13.4648C29.0072 13.4258 28.1589 13.3104 27.3259 13.1199C26.4594 12.8982 25.628 12.5565 24.856 12.1049C24.856 12.1049 24.1866 11.6651 24.1359 11.6347V20.0848C24.1078 20.9806 23.939 21.8664 23.6358 22.7098C22.9174 24.5682 21.5044 26.0744 19.6957 26.9099C18.7109 27.3635 17.6398 27.5988 16.5556 27.5997C15.053 27.5953 13.5839 27.1559 12.3256 26.3346L12.3158 26.3248C12.1056 26.1105 11.907 25.8853 11.7208 25.6499C11.2478 25.0244 10.8672 24.334 10.5908 23.6001V23.595C10.2898 22.7166 10.1394 21.7937 10.1459 20.8652C10.1675 19.6549 10.4814 18.4677 11.0609 17.405C11.5231 16.5848 12.1236 15.8506 12.8359 15.2351C13.4654 14.7047 14.1784 14.2822 14.946 13.985C15.776 13.6354 16.6654 13.4483 17.5659 13.4337V16.6785C17.5659 16.6785 15.9209 16.1336 14.6011 17.0987C14.1295 17.4089 13.7407 17.8295 13.4683 18.3239C13.196 18.8183 13.0482 19.3716 13.0378 19.936C13.0275 20.5004 13.1549 21.0587 13.4089 21.5628C13.663 22.0669 14.0361 22.5014 14.4959 22.8288C14.6408 22.9236 14.781 23.0087 14.9208 23.0839C15.4026 23.7253 16.089 24.183 16.8664 24.3812C17.6437 24.5793 18.4655 24.5062 19.1956 24.1738C19.6192 23.9887 19.999 23.7162 20.31 23.3741C20.6211 23.0321 20.8564 22.6282 21.0005 22.1889C21.1566 21.6571 21.2193 21.1022 21.1856 20.549V4.61987H24.1855C24.3712 5.6699 24.8475 6.64684 25.5604 7.43984C25.9245 7.83088 26.3343 8.17671 26.781 8.46986C27.2636 8.98738 27.8299 9.42009 28.456 9.74991C28.9026 9.97496 29.3741 10.1468 29.8608 10.2618V10.2598Z" fill="white"/>
<g id="Group 4">
<path id="Path 34" d="M9.39502 22.6097L9.46983 22.8247C9.45999 22.7999 9.43006 22.7247 9.39502 22.6097Z" fill="#69C9D0"/>
<path id="Path 35" d="M14.9452 13.99C14.1771 14.2861 13.4639 14.7087 12.8351 15.2402C12.1213 15.8562 11.5206 16.5923 11.0602 17.4152C10.4798 18.4776 10.1658 19.6649 10.1451 20.8754C10.1406 21.8038 10.291 22.7265 10.59 23.6055V23.6107C10.8675 24.3441 11.248 25.0343 11.7201 25.6605C11.9063 25.8958 12.1049 26.1211 12.315 26.3353C11.6377 25.8661 11.0329 25.3001 10.52 24.6553C10.0476 24.0337 9.66862 23.3465 9.39505 22.6153V22.6054C9.09122 21.726 8.94072 20.8009 8.95012 19.8705C8.9717 18.6602 9.28564 17.4731 9.86517 16.4103C10.3256 15.5875 10.9263 14.8514 11.6401 14.2353C12.4497 13.5437 13.3972 13.0322 14.4196 12.7348C15.442 12.4374 16.516 12.3609 17.5703 12.5104V13.4404C16.668 13.4544 15.7769 13.6415 14.9452 13.9916V13.99Z" fill="#69C9D0"/>
<path id="Path 36" d="M24.1902 4.61981H21.1903V20.5497C21.2215 21.1029 21.159 21.6574 21.0053 22.1897C20.8587 22.6277 20.6226 23.0304 20.3118 23.3721C20.0011 23.7139 19.6225 23.9871 19.2004 24.1745C18.6425 24.4457 18.0207 24.5579 17.4033 24.4988C16.7859 24.4397 16.1967 24.2116 15.7004 23.8394C15.4023 23.6349 15.1404 23.3821 14.9255 23.0913C15.3941 23.3505 15.9182 23.493 16.4535 23.5067C16.9887 23.5204 17.5194 23.4049 18.0006 23.1701C18.4238 22.9842 18.8032 22.7115 19.1141 22.3696C19.4251 22.0276 19.6607 21.6241 19.8055 21.1852C19.9617 20.6534 20.0243 20.0985 19.9906 19.5453V3.61499H24.1355C24.1054 3.95082 24.1238 4.28924 24.1902 4.61981ZM29.8601 9.37461V10.2597C28.6747 9.99189 27.5998 9.3672 26.7802 8.4698C26.9354 8.56981 27.0901 8.65998 27.2551 8.74542C28.0568 9.17068 28.9527 9.3872 29.8601 9.37501V9.37461Z" fill="#69C9D0"/>
</g>
<path id="Path 38" d="M24.2898 34.8291C24.2889 34.9428 24.3058 35.0558 24.3398 35.1642C24.3398 35.1741 24.3449 35.1792 24.3449 35.189C24.4253 35.447 24.586 35.6726 24.8037 35.8327C25.0214 35.9928 25.2847 36.0791 25.5549 36.0789V37.3589C24.946 37.4214 24.3329 37.2883 23.8047 36.979C23.427 36.7447 23.1172 36.4158 22.906 36.0248C22.6947 35.6338 22.5894 35.1943 22.6005 34.75C22.6116 34.3057 22.7388 33.8721 22.9693 33.4921C23.1998 33.1122 23.5257 32.7991 23.9146 32.584C24.4236 32.3299 24.9928 32.2209 25.5596 32.269V33.5491C25.3934 33.5488 25.2288 33.5814 25.0752 33.6449C24.9216 33.7083 24.782 33.8015 24.6645 33.919C24.547 34.0366 24.4538 34.1761 24.3903 34.3297C24.3268 34.4833 24.2943 34.648 24.2945 34.8142L24.2898 34.8291Z" fill="#69C9D0"/>
<path id="Path 39" d="M26.8298 34.8291C26.8308 34.9427 26.8139 35.0557 26.7798 35.1641C26.7798 35.174 26.7747 35.1791 26.7747 35.1889C26.6944 35.447 26.5336 35.6725 26.3159 35.8326C26.0982 35.9927 25.835 36.079 25.5648 36.0788V37.3588C26.1721 37.4213 26.7834 37.2882 27.3098 36.9789C27.6822 36.7542 27.9897 36.4363 28.2019 36.0565C28.4141 35.6768 28.5236 35.2483 28.5198 34.8133C28.5214 34.3577 28.4001 33.91 28.1687 33.5175C27.9372 33.125 27.6042 32.8023 27.2047 32.5832C26.6957 32.329 26.1265 32.22 25.5596 32.2682V33.5482C25.7258 33.548 25.8905 33.5805 26.0441 33.644C26.1977 33.7075 26.3372 33.8007 26.4548 33.9182C26.5723 34.0357 26.6655 34.1753 26.7289 34.3289C26.7924 34.4825 26.825 34.6471 26.8247 34.8133V34.8283L26.8298 34.8291Z" fill="#EE1D52"/>
<path id="Path 40" d="M5.97498 31.1099H10.6605L10.2274 32.3998H9.00244V37.3349H7.49481V32.3998H5.97498V31.1099ZM18.3951 31.1099V32.3998H19.9149V37.3349H21.4249V32.3998H22.6498L23.083 31.1099H18.3951ZM11.6803 32.575C11.8246 32.575 11.9658 32.5322 12.0858 32.4519C12.2059 32.3717 12.2994 32.2577 12.3547 32.1243C12.4099 31.9909 12.4244 31.8442 12.3962 31.7026C12.3681 31.561 12.2985 31.4309 12.1964 31.3288C12.0944 31.2267 11.9643 31.1572 11.8227 31.129C11.6811 31.1008 11.5343 31.1153 11.4009 31.1705C11.2675 31.2258 11.1535 31.3194 11.0733 31.4394C10.9931 31.5595 10.9503 31.7006 10.9503 31.845C10.95 31.9409 10.9686 32.0359 11.0052 32.1246C11.0417 32.2133 11.0954 32.2939 11.1632 32.3617C11.2311 32.4296 11.3116 32.4833 11.4003 32.5199C11.4889 32.5565 11.5839 32.5752 11.6799 32.575H11.6803ZM10.9499 37.3309H12.4299V33.09H10.9499V37.3309ZM17.7498 32.5411H16.0197L14.5298 34.031V31.1099H13.0599L13.0548 37.3246H14.54V35.7048L14.9999 35.2835L16.4398 37.3235H18.0234L15.9366 34.3436L17.7498 32.5411ZM31.9397 34.3523L33.7509 32.5411H32.0208L30.5309 34.031V31.1099H29.0599L29.0501 37.3309H30.5353V35.7111L31.0003 35.291L32.4402 37.3309H34.0254L31.9397 34.3523ZM28.1346 34.8122C28.1416 35.3239 27.9962 35.8262 27.7169 36.2551C27.4377 36.684 27.0372 37.0201 26.5664 37.2208C26.0956 37.4215 25.5757 37.4776 25.0729 37.382C24.5701 37.2865 24.1071 37.0435 23.7428 36.6841C23.3784 36.3247 23.1292 35.8651 23.0267 35.3636C22.9243 34.8622 22.9733 34.3416 23.1675 33.8681C23.3617 33.3946 23.6924 32.9895 24.1174 32.7045C24.5425 32.4194 25.0427 32.2671 25.5545 32.2671C26.234 32.2623 26.8875 32.5277 27.3715 33.0047C27.8554 33.4818 28.13 34.1315 28.135 34.811L28.1346 34.8122ZM26.8195 34.8122C26.8195 34.562 26.7453 34.3174 26.6063 34.1094C26.4673 33.9013 26.2698 33.7392 26.0386 33.6434C25.8074 33.5477 25.5531 33.5226 25.3077 33.5714C25.0623 33.6202 24.8368 33.7407 24.6599 33.9176C24.483 34.0946 24.3625 34.32 24.3137 34.5654C24.2649 34.8108 24.2899 35.0652 24.3857 35.2963C24.4814 35.5275 24.6436 35.7251 24.8516 35.8641C25.0597 36.0031 25.3043 36.0773 25.5545 36.0773C25.7208 36.0776 25.8856 36.045 26.0393 35.9815C26.193 35.918 26.3327 35.8247 26.4503 35.7071C26.5678 35.5894 26.661 35.4497 26.7245 35.2959C26.7879 35.1421 26.8204 34.9774 26.8199 34.811L26.8195 34.8122Z" fill="white"/>
</g>
</g>
<defs>
<clipPath id="clip0_879_1063">
<rect y="0.0898438" width="40" height="40" rx="5" fill="white"/>
</clipPath>
</defs>
</svg>
