<svg width="40" height="41" viewBox="0 0 40 41" fill="none" xmlns="http://www.w3.org/2000/svg">
<g id="whatsapp circle" clip-path="url(#clip0_394_660)">
<path id="Path 41" d="M34.1719 5.83891C30.7566 2.42221 26.2159 0.363232 21.3954 0.0453806C16.5749 -0.272471 11.8031 1.17247 7.96869 4.11114C4.13429 7.0498 1.49859 11.2819 0.552399 16.0193C-0.393789 20.7567 0.41403 25.6766 2.82543 29.8627L0 40.1796L10.558 37.4112C13.4782 39.0014 16.7502 39.8347 20.0753 39.8349H20.0838C24.0223 39.8345 27.8723 38.6665 31.1471 36.4785C34.422 34.2905 36.9746 31.1808 38.4824 27.5423C39.9902 23.9038 40.3855 19.9 39.6183 16.037C38.851 12.1739 36.9557 8.62502 34.1719 5.83891ZM20.0838 36.4722H20.0773C17.1129 36.4724 14.2029 35.6756 11.6521 34.1651L11.0474 33.8067L4.78137 35.4493L6.45405 29.342L6.05989 28.716C4.109 25.6072 3.24652 21.9384 3.60804 18.286C3.96956 14.6337 5.53457 11.2051 8.05704 8.53918C10.5795 5.87325 13.9164 4.12118 17.5432 3.55841C21.1699 2.99563 24.8809 3.65407 28.0927 5.4302C31.3044 7.20633 33.8349 9.99945 35.2862 13.3705C36.7376 16.7415 37.0275 20.4992 36.1104 24.0529C35.1934 27.6067 33.1213 30.7549 30.22 33.0027C27.3188 35.2505 23.7527 36.4704 20.0826 36.4706L20.0838 36.4722Z" fill="#E0E0E0"/>
<path id="Path 42" d="M0.914062 39.0349L3.61051 29.1877C1.52161 25.5632 0.686836 21.3507 1.23562 17.2035C1.7844 13.0563 3.68608 9.20595 6.64581 6.24949C9.60554 3.29303 13.458 1.39561 17.6058 0.851413C21.7536 0.307217 25.9651 1.14665 29.5874 3.23956C33.2096 5.33247 36.0401 8.56193 37.6401 12.4272C39.2402 16.2925 39.5203 20.5777 38.437 24.6185C37.3538 28.6592 34.9678 32.2296 31.6488 34.7763C28.3299 37.3229 24.2635 38.7034 20.0801 38.7038H20.0717C16.8993 38.7032 13.7775 37.9083 10.9911 36.3915L0.91567 39.0333L0.914062 39.0349Z" fill="#009E15"/>
<path id="Path 43" fill-rule="evenodd" clip-rule="evenodd" d="M15.1622 11.4564C14.7937 10.6372 14.4056 10.6207 14.0552 10.6066C13.7683 10.5942 13.4401 10.595 13.1126 10.595C12.8633 10.6016 12.6181 10.6597 12.3923 10.7656C12.1665 10.8715 11.9651 11.023 11.8007 11.2105C11.2445 11.7372 10.8041 12.374 10.5076 13.0803C10.2111 13.7866 10.065 14.547 10.0786 15.3129C10.0786 17.7333 11.8417 20.0721 12.0876 20.4004C12.3335 20.7287 15.4908 25.854 20.4908 27.8256C24.6461 29.4641 25.4919 29.1383 26.394 29.0563C27.296 28.9743 29.3042 27.8666 29.7144 26.7179C30.1246 25.5691 30.1242 24.5847 30.0013 24.379C29.8783 24.1733 29.5505 24.0511 29.0583 23.8048C28.5661 23.5585 26.1481 22.3684 25.6968 22.2045C25.2456 22.0405 24.9178 21.9586 24.5899 22.4512C24.262 22.9438 23.3198 24.0507 23.0325 24.3798C22.7453 24.7089 22.4584 24.7495 21.9666 24.5036C20.5164 23.9254 19.1778 23.0993 18.0109 22.0622C16.9353 21.0683 16.0131 19.9203 15.2743 18.6558C14.9874 18.164 15.2433 17.8972 15.4904 17.6513C15.7114 17.4311 15.9822 17.0772 16.2285 16.7899C16.4304 16.5412 16.5959 16.2651 16.7199 15.9698C16.7854 15.8341 16.8161 15.6843 16.8091 15.5338C16.802 15.3833 16.7576 15.2369 16.6797 15.108C16.5556 14.8617 15.5993 12.4292 15.1622 11.4564Z" fill="white"/>
<path id="Path 44" d="M34.0092 5.77542C30.6339 2.39563 26.145 0.358189 21.3788 0.0427083C16.6127 -0.272772 11.8944 1.15523 8.10302 4.06065C4.31167 6.96606 1.70587 11.1507 0.771138 15.835C-0.163596 20.5192 0.636487 25.3835 3.02232 29.5216L0.229431 39.722L10.6661 36.9853C13.5527 38.5573 16.7872 39.381 20.0741 39.3812H20.0826C23.9762 39.3815 27.7824 38.2273 31.0201 36.0645C34.2578 33.9018 36.7814 30.8276 38.2721 27.2306C39.7627 23.6336 40.1533 19.6755 39.3945 15.8565C38.6358 12.0376 36.7617 8.52934 34.0092 5.77542ZM20.0826 36.0572H20.0782C17.1476 36.0575 14.2709 35.2698 11.7493 33.7766L11.1515 33.4222L4.95656 35.0459L6.60995 29.0077L6.22061 28.3889C4.29218 25.3157 3.4397 21.6889 3.79718 18.0784C4.15467 14.468 5.70185 11.0787 8.1955 8.44337C10.6892 5.80806 13.9879 4.07616 17.5731 3.51993C21.1583 2.96371 24.8267 3.6147 28.0016 5.37057C31.1765 7.12643 33.6779 9.88761 35.1126 13.22C36.5472 16.5524 36.8337 20.2671 35.9271 23.7801C35.0204 27.2931 32.9721 30.4052 30.104 32.6272C27.2359 34.8492 23.7107 36.055 20.0826 36.0552V36.0572Z" fill="white"/>
</g>
<defs>
<clipPath id="clip0_394_660">
<rect width="40" height="40.1796" fill="white"/>
</clipPath>
</defs>
</svg>
